<svg width="29" height="25" viewBox="0 0 29 25" fill="none" xmlns="http://www.w3.org/2000/svg">
<path d="M25.4709 2.18265C24.7786 1.49033 23.9566 0.941227 23.052 0.566717C22.1474 0.192207 21.1778 -0.000367132 20.1987 5.25448e-07C19.2197 0.000368183 18.2502 0.19367 17.3459 0.56886C16.4415 0.944049 15.62 1.49377 14.9282 2.18661L14.0251 3.10065L13.1296 2.18859L13.1238 2.18277C12.4318 1.49077 11.6103 0.941853 10.7062 0.567349C9.80203 0.192844 8.83299 8.86947e-05 7.85437 8.86947e-05C6.87574 8.86947e-05 5.9067 0.192844 5.00257 0.567349C4.09845 0.941853 3.27693 1.49077 2.58494 2.18277L2.18265 2.58506C0.785122 3.98259 0 5.87805 0 7.85446C0 9.83086 0.785122 11.7263 2.18265 13.1239L12.8003 23.7414L13.9993 24.9976L14.0279 24.969L14.0589 25L15.1823 23.8147L25.8732 13.1237C27.2687 11.725 28.0523 9.82999 28.0523 7.85428C28.0523 5.87857 27.2687 3.98353 25.8732 2.58489L25.4709 2.18265ZM24.5556 11.8064L14.0279 22.3343L3.49992 11.8064C2.45178 10.7582 1.86294 9.33661 1.86294 7.85431C1.86294 6.37201 2.45178 4.95042 3.49992 3.90227L3.90227 3.49998C4.94991 2.45235 6.37064 1.86355 7.85221 1.863C9.33378 1.86244 10.755 2.45017 11.8034 3.49701L14.0211 5.75516L16.2494 3.49998C16.7684 2.98098 17.3845 2.56929 18.0626 2.28841C18.7407 2.00754 19.4675 1.86297 20.2015 1.86297C20.9354 1.86297 21.6622 2.00754 22.3403 2.28841C23.0184 2.56929 23.6346 2.98098 24.1535 3.49998L24.5558 3.90221C25.6024 4.95123 26.1901 6.37254 26.1901 7.85433C26.19 9.33613 25.6022 10.7574 24.5556 11.8064Z" fill="black"/>
</svg>
